<svg id="e6HArBdaROh1" xmlns="http://www.w3.org/2000/svg" xmlns:xlink="http://www.w3.org/1999/xlink" viewBox="0 0 128 128" shape-rendering="geometricPrecision" text-rendering="geometricPrecision"><defs><filter id="e6HArBdaROh12-filter" x="-400%" width="600%" y="-400%" height="600%"><feGaussianBlur id="e6HArBdaROh12-filter-blur-0" stdDeviation="4,4" result="result"></feGaussianBlur></filter><linearGradient id="e6HArBdaROh14-fill" x1="42.51" y1="54.59" x2="88.31" y2="77.93" spreadMethod="pad" gradientUnits="userSpaceOnUse" gradientTransform="matrix(1 0 0 1 0 0)"><stop id="e6HArBdaROh14-fill-0" offset="1%" stop-color="rgb(162,79,223)"></stop><stop id="e6HArBdaROh14-fill-1" offset="100%" stop-color="rgb(255,255,242)"></stop></linearGradient></defs><g id="e6HArBdaROh2" transform="matrix(1 0 0 1 0 0.000001)" opacity="1"><ellipse id="e6HArBdaROh3" rx="6.106699" ry="6.109795" transform="matrix(0.635907 0 0 0.635906 35.883293 92.114745)" fill="rgb(255,255,255)" stroke="none" stroke-width="0"></ellipse><ellipse id="e6HArBdaROh4" rx="6.106699" ry="6.109795" transform="matrix(0.635907 0 0 0.635906 42 42)" fill="rgb(255,255,255)" stroke="none" stroke-width="0"></ellipse><ellipse id="e6HArBdaROh5" rx="6.106699" ry="6.109795" transform="matrix(0.368291 0 0 0.36829 60.622902 23.376878)" fill="rgb(255,255,255)" stroke="none" stroke-width="0"></ellipse><ellipse id="e6HArBdaROh6" rx="6.106699" ry="6.109795" transform="matrix(0.368291 0 0 0.36829 23.377098 60.622902)" fill="rgb(255,255,255)" stroke="none" stroke-width="0"></ellipse><ellipse id="e6HArBdaROh7" rx="6.106699" ry="6.109795" transform="matrix(0.635907 0 0 0.635906 92.116707 35.885255)" fill="rgb(255,255,255)" stroke="none" stroke-width="0"></ellipse><path id="e6HArBdaROh8" d="M 35.883293 92.114745 C 35.883293 92.114745 23.377098 60.622904 42 42 C 60.622902 23.377096 92.116707 35.885254 92.116707 35.885254" transform="matrix(1 0 0 1 0 0.000002)" opacity="1" fill="none" stroke="rgb(255,255,255)" stroke-width="2" stroke-dashoffset="100.98" stroke-dasharray="100.98 0"></path><line id="e6HArBdaROh9" x1="-18.622902" y1="18.622902" x2="18.622902" y2="-18.622902" transform="matrix(1 0 0 1 42 42)" fill="none" stroke="rgb(255,255,255)" stroke-width="1.2" stroke-dashoffset="52.67" stroke-dasharray="52.67 0"></line></g><g id="e6HArBdaROh10" transform="matrix(0.9 0 0 0.9 11.568829 12.170068)"><g id="e6HArBdaROh11" transform="matrix(0.707107 -0.707107 0.707107 0.707107 -20.802561 68.707107)"><path id="e6HArBdaROh12" d="M79,88C79,90.209139,77.209139,92,75,92L53,92C50.790861,92,49,90.209139,49,88C49,85.790861,50.790861,84,53,84L75,84C77.209139,84,79,85.790861,79,88ZM74,80L81,60L66,34L66,59.42C68.17003,60.367079,69.378275,62.70637,68.894532,65.024124C68.410788,67.341878,66.367697,69.002576,64,69.002576C61.632303,69.002576,59.589212,67.341878,59.105468,65.024124C58.621725,62.70637,59.82997,60.367079,62,59.42L62,34L47,60L54,80Z" opacity="0.4" filter="url(#e6HArBdaROh12-filter)" fill="rgb(0,0,0)" fill-rule="evenodd" stroke="none" stroke-width="1"></path></g><g id="e6HArBdaROh13" transform="matrix(0.707107 -0.707107 0.707107 0.707107 -25.802561 63.707107)"><path id="e6HArBdaROh14" d="M79,88C79,90.209139,77.209139,92,75,92L53,92C50.790861,92,49,90.209139,49,88C49,85.790861,50.790861,84,53,84L75,84C77.209139,84,79,85.790861,79,88ZM74,80L81,60L66,34L66,59.42C68.17003,60.367079,69.378275,62.70637,68.894532,65.024124C68.410788,67.341878,66.367697,69.002576,64,69.002576C61.632303,69.002576,59.589212,67.341878,59.105468,65.024124C58.621725,62.70637,59.82997,60.367079,62,59.42L62,34L47,60L54,80Z" fill="url(#e6HArBdaROh14-fill)" fill-rule="evenodd" stroke="none" stroke-width="1"></path></g></g><script>(function(s,i,u,o,c,w,d,t,n,x,e,p){w[o]=w[o]||{};w[o][s]=w[o][s]||[];w[o][s].push(i);e=d.createElementNS(n,t);e.async=true;e.setAttributeNS(x,'href',[u,s,'.','j','s','?','v','=',c].join(''));e.setAttributeNS(null,'src',[u,s,'.','j','s'].join(''));p=d.getElementsByTagName(t)[0];p.parentNode.insertBefore(e,p);})('91c80d77',{"root":"e6HArBdaROh1","animations":[{"elements":{"e6HArBdaROh2":{"opacity":[{"t":4500,"v":1},{"t":5000,"v":0}]},"e6HArBdaROh3":{"transform":{"data":{"o":{"x":35.883293,"y":92.114745,"type":"corner"}},"keys":{"s":[{"t":2900,"v":{"x":0,"y":0},"e":[0.175,0.885,0.32,1.275]},{"t":3100,"v":{"x":0.635907,"y":0.635906}}]}}},"e6HArBdaROh4":{"transform":{"data":{"o":{"x":42,"y":42,"type":"corner"}},"keys":{"s":[{"t":2700,"v":{"x":0,"y":0},"e":[0.175,0.885,0.32,1.275]},{"t":2900,"v":{"x":0.635907,"y":0.635906}}]}}},"e6HArBdaROh5":{"transform":{"keys":{"o":[{"t":3300,"v":{"x":42,"y":42,"type":"corner"},"e":[0.42,0,0.58,1]},{"t":3500,"v":{"x":60.622902,"y":23.376878,"type":"corner"}}],"s":[{"t":2700,"v":{"x":0,"y":0},"e":[0.175,0.885,0.32,1.275]},{"t":2900,"v":{"x":0.368291,"y":0.36829}}]}}},"e6HArBdaROh6":{"transform":{"keys":{"o":[{"t":3300,"v":{"x":42,"y":42,"type":"corner"},"e":[0.42,0,0.58,1]},{"t":3500,"v":{"x":23.377098,"y":60.622902,"type":"corner"}}],"s":[{"t":2700,"v":{"x":0,"y":0},"e":[0.175,0.885,0.32,1.275]},{"t":2900,"v":{"x":0.368291,"y":0.36829}}]}}},"e6HArBdaROh7":{"transform":{"data":{"o":{"x":92.116707,"y":35.885255,"type":"corner"}},"keys":{"s":[{"t":2900,"v":{"x":0,"y":0},"e":[0.175,0.885,0.32,1.275]},{"t":3100,"v":{"x":0.635907,"y":0.635906}}]}}},"e6HArBdaROh8":{"d":[{"t":3300,"v":["M",35.883293,92.114745,"C",35.883293,92.114745,42,42,42,42,"C",42,42,92.116707,35.885254,92.116707,35.885254],"e":[0.42,0,0.58,1]},{"t":3500,"v":["M",35.883293,92.114745,"C",35.883293,92.114745,23.377098,60.622904,42,42,"C",60.622902,23.377096,92.116707,35.885254,92.116707,35.885254]}],"opacity":[{"t":2890,"v":0},{"t":2900,"v":1}],"stroke-dashoffset":[{"t":2900,"v":50.49},{"t":3100,"v":100.98}],"stroke-dasharray":[{"t":2900,"v":[0,100.98]},{"t":3100,"v":[100.98,0]}]},"e6HArBdaROh9":{"stroke-dashoffset":[{"t":3300,"v":26.34,"e":[0.42,0,0.58,1]},{"t":3500,"v":52.67}],"stroke-dasharray":[{"t":3300,"v":[0,52.67],"e":[0.42,0,0.58,1]},{"t":3500,"v":[52.67,0]}]},"e6HArBdaROh10":{"transform":{"data":{"t":{"x":-41.999983,"y":-42.493889}},"keys":{"o":[{"t":2800,"v":{"x":42,"y":42.493929,"type":"corner"},"e":[0.215,0.61,0.355,1]},{"t":3100,"v":{"x":49.573327,"y":50.067256,"type":"corner"}},{"t":3300,"v":{"x":42,"y":42.493929,"type":"corner"},"e":[0.42,0,0.58,1]},{"t":3500,"v":{"x":60.613318,"y":23.376868,"type":"corner"}},{"t":3700,"v":{"x":49.368814,"y":50.414568,"type":"corner"}},{"t":4500,"v":{"x":49.368814,"y":50.414568,"type":"corner"},"e":[0.68,-0.55,0.265,1]},{"t":5000,"v":{"x":42,"y":42.493929,"type":"corner"},"e":[0.215,0.61,0.355,1]}],"s":[{"t":2700,"v":{"x":1,"y":1},"e":[0.42,0,1,1]},{"t":2800,"v":{"x":0.7,"y":0.7},"e":[0,0,0.58,1]},{"t":2900,"v":{"x":0.91,"y":0.9}},{"t":3100,"v":{"x":0.91,"y":0.9}},{"t":3200,"v":{"x":0.91,"y":0.9},"e":[0.42,0,1,1]},{"t":3300,"v":{"x":0.7,"y":0.7}},{"t":3500,"v":{"x":0.7,"y":0.7},"e":[0,0,0.58,1]},{"t":3600,"v":{"x":0.9,"y":0.9}},{"t":4500,"v":{"x":0.9,"y":0.9},"e":[0.68,-0.55,0.265,1]},{"t":5000,"v":{"x":1,"y":1},"e":[0.215,0.61,0.355,1]}]}}},"e6HArBdaROh11":{"transform":{"data":{"o":{"x":69,"y":68,"type":"corner"},"t":{"x":-64,"y":-63}},"keys":{"r":[{"t":2600,"v":-135,"e":[0.215,0.61,0.355,1]},{"t":2800,"v":-45},{"t":4500,"v":-45,"e":[0.68,-0.55,0.265,1]},{"t":5000,"v":-135,"e":[0.215,0.61,0.355,1]}]}}},"e6HArBdaROh13":{"transform":{"data":{"o":{"x":64,"y":63,"type":"corner"},"t":{"x":-64,"y":-63}},"keys":{"r":[{"t":2600,"v":-135,"e":[0.215,0.61,0.355,1]},{"t":2800,"v":-45},{"t":4500,"v":-45,"e":[0.68,-0.55,0.265,1]},{"t":5000,"v":-135,"e":[0.215,0.61,0.355,1]}]}}}},"s":"MDAA1MzliNDI4NTDk1OTJKODE5VNDg5OGY4ZVQG0MjVhNTVVNTMA1MDUwNGM0MNjg0ODk5MkQ4GNTgzOTQ4OThDmOGU0MjVhTjKUxNGM0Mjg5OYTRZODU5MjgxOOTQ4OThmOGUK5MzQyQjVhNTUBGNGM0Mjg2OKDk4YzhjNDI1HYTUxNGM0MjgSxOGM5NDg1OTFI4ZTgxOTQ4NKTQyNWE4NjgxWOGM5Mzg1NGMR0MjkzOTA4NTFg1ODQ0MjVhNHTE5ZA|"}],"options":"MDHAxMDgyMjk3YLTdiNjg3OTdiCMjk0MTI5NzMF3NjY4NmIyOUOo4NA|"},'https://cdn.svgator.com/ply/','__SVGATOR_PLAYER__','2021-10-11',window,document,'script','http://www.w3.org/2000/svg','http://www.w3.org/1999/xlink')</script></svg>