<svg width="64" height="66" viewBox="0 0 64 66" fill="none" xmlns="http://www.w3.org/2000/svg">
<g clip-path="url(#clip0_2419_22774)">
<path d="M33.4608 61.0832C50.3284 61.0832 64.0024 47.4092 64.0024 30.5416C64.0024 13.6739 50.3284 0 33.4608 0C16.5931 0 2.91919 13.6739 2.91919 30.5416C2.91919 47.4092 16.5931 61.0832 33.4608 61.0832Z" fill="#26005A"/>
<path d="M2.1539 32.1433C3.28915 32.0876 4.16593 31.1246 4.11019 29.9892C4.05444 28.8539 3.0915 27.977 1.95624 28.0328C0.820987 28.0885 -0.0557947 29.0516 -4.55547e-05 30.1869C0.0557036 31.3222 1.01864 32.1991 2.1539 32.1433Z" fill="#440099"/>
<path d="M2.36681 36.6234C1.16567 36.6792 0.233134 37.703 0.293951 38.9042C0.349701 40.1055 1.37346 41.0381 2.5746 40.9772C3.77574 40.9215 4.70827 39.8977 4.64745 38.6964C4.5917 37.4952 3.56795 36.5626 2.36681 36.6234Z" fill="#440099"/>
<path d="M11.2718 40.2875C12.3209 40.2368 13.1318 39.3448 13.0812 38.2956C13.0305 37.2464 12.1385 36.4355 11.0894 36.4861C10.0403 36.5368 9.2294 37.4289 9.28008 38.4781C9.33077 39.5272 10.2228 40.3382 11.2718 40.2875Z" fill="#440099"/>
<path d="M2.81784 46.1568C2.06776 46.1923 1.49 46.8259 1.52548 47.576C1.56095 48.3261 2.19447 48.9039 2.94454 48.8685C3.69462 48.833 4.27239 48.1994 4.23691 47.4493C4.20143 46.6992 3.56792 46.1213 2.81784 46.1568Z" fill="#440099"/>
<path d="M11.4898 44.9663C10.309 45.022 9.40177 46.0205 9.45752 47.2015C9.51326 48.3824 10.5117 49.2897 11.6925 49.2339C12.8734 49.1782 13.7806 48.1797 13.7249 46.9988C13.6691 45.8229 12.6707 44.9105 11.4898 44.9663Z" fill="#440099"/>
<path d="M12.0068 57.4801C12.9276 57.4801 13.6742 56.7335 13.6742 55.8125C13.6742 54.8916 12.9276 54.145 12.0068 54.145C11.0859 54.145 10.3394 54.8916 10.3394 55.8125C10.3394 56.7335 11.0859 57.4801 12.0068 57.4801Z" fill="#440099"/>
<path d="M20.714 57.5257C21.8868 57.5257 22.8375 56.5749 22.8375 55.402C22.8375 54.2291 21.8868 53.2783 20.714 53.2783C19.5412 53.2783 18.5905 54.2291 18.5905 55.402C18.5905 56.5749 19.5412 57.5257 20.714 57.5257Z" fill="#440099"/>
<path d="M29.5176 56.8764C30.5617 56.8257 31.3675 55.9388 31.3168 54.8997C31.2661 53.8556 30.3843 53.0497 29.3403 53.1004C28.2962 53.1511 27.4904 54.033 27.5411 55.0771C27.5918 56.1212 28.4787 56.9271 29.5176 56.8764Z" fill="#440099"/>
<path d="M21.1245 65.4774C21.8746 65.4774 22.4827 64.8693 22.4827 64.1191C22.4827 63.3689 21.8746 62.7607 21.1245 62.7607C20.3743 62.7607 19.7662 63.3689 19.7662 64.1191C19.7662 64.8693 20.3743 65.4774 21.1245 65.4774Z" fill="#440099"/>
<path d="M29.7356 61.5243C28.5344 61.5801 27.6019 62.6039 27.6627 63.8051C27.7185 65.0063 28.7422 65.9389 29.9434 65.8781C31.1445 65.8224 32.077 64.7985 32.0162 63.5973C31.9605 62.3961 30.9367 61.4635 29.7356 61.5243Z" fill="#440099"/>
<path d="M28.8536 13.8164C28.8536 13.8164 29.5226 23.5425 25.0828 35.6152" stroke="white" stroke-linecap="round" stroke-linejoin="round"/>
<path d="M25.9091 33.2075C25.9091 33.2075 20.0502 34.358 20.0502 39.9737C20.0502 45.5894 25.9091 45.8428 25.9091 45.8428" stroke="white" stroke-linecap="round" stroke-linejoin="round"/>
<path d="M38.0731 13.8164C38.0731 13.8164 37.4041 23.5425 41.8439 35.6152" stroke="white" stroke-linecap="round" stroke-linejoin="round"/>
<path d="M41.0177 33.2075C41.0177 33.2075 46.8767 34.358 46.8767 39.9737C46.8767 45.5894 41.0177 45.8428 41.0177 45.8428" stroke="white" stroke-linecap="round" stroke-linejoin="round"/>
<path d="M41.849 42.5737C38.0427 42.5737 36.8212 47.267 33.466 47.267C30.1108 47.267 28.8893 42.5737 25.083 42.5737" stroke="#00B0B9" stroke-linecap="round" stroke-linejoin="round"/>
<path d="M22.9086 25.0889C22.8123 25.2511 22.6197 25.3322 22.4271 25.2764L17.9672 24.0042C17.7391 23.9383 17.6124 23.7052 17.6783 23.4771C17.7442 23.249 17.9773 23.1172 18.2054 23.1882L22.6653 24.4604C22.8934 24.5263 23.0201 24.7594 22.9542 24.9875C22.944 25.028 22.9288 25.0635 22.9086 25.0889Z" fill="#CB00A1"/>
<path d="M22.3917 28.6057C22.3157 28.7324 22.1788 28.8135 22.0167 28.8135L19.7005 28.7781C19.4674 28.7781 19.2748 28.5804 19.2799 28.3422C19.2799 28.109 19.4775 27.9164 19.7157 27.9215L22.0319 27.957C22.265 27.957 22.4576 28.1546 22.4525 28.3929C22.4525 28.4689 22.4322 28.5449 22.3917 28.6057Z" fill="#CB00A1"/>
<path d="M24.3226 21.814C24.2009 22.0167 23.9425 22.0826 23.7397 21.961L21.753 20.7699C21.5503 20.6483 21.4844 20.3898 21.6061 20.187C21.7277 19.9843 21.9862 19.9184 22.1889 20.04L24.1756 21.2311C24.3783 21.3528 24.4442 21.6163 24.3226 21.814Z" fill="#CB00A1"/>
<path d="M49.4818 32.8635C49.4261 32.681 49.497 32.4834 49.6693 32.3769L53.6174 29.9491C53.8201 29.8275 54.0786 29.8883 54.2002 30.091C54.3219 30.2938 54.261 30.5573 54.0583 30.6739L50.1103 33.1017C49.9075 33.2234 49.6491 33.1625 49.5274 32.9598C49.5072 32.9243 49.4919 32.8939 49.4818 32.8584V32.8635Z" fill="#CB00A1"/>
<path d="M47.2366 30.106C47.1961 29.9641 47.2265 29.807 47.3329 29.6904L48.9243 28.0077C49.0865 27.8354 49.3551 27.8252 49.5274 27.9925C49.6997 28.1547 49.7099 28.4233 49.5426 28.5956L47.9512 30.2784C47.789 30.4507 47.5204 30.4608 47.3481 30.2936C47.2924 30.2429 47.2518 30.177 47.2366 30.106Z" fill="#CB00A1"/>
<path d="M50.9365 36.1177C50.8706 35.8896 50.9973 35.6564 51.2253 35.5855L53.4452 34.9266C53.6732 34.8607 53.9064 34.9874 53.9773 35.2155C54.0483 35.4436 53.9165 35.6767 53.6884 35.7477L51.4686 36.4066C51.2405 36.4725 51.0023 36.3457 50.9365 36.1177Z" fill="#CB00A1"/>
</g>
<defs>
<clipPath id="clip0_2419_22774">
<rect width="64.0025" height="65.8829" fill="white"/>
</clipPath>
</defs>
</svg>
