<svg width="64" height="66" viewBox="0 0 64 66" fill="none" xmlns="http://www.w3.org/2000/svg">
<g clip-path="url(#clip0_2419_22707)">
<path d="M33.4608 61.0832C50.3284 61.0832 64.0024 47.4092 64.0024 30.5416C64.0024 13.6739 50.3284 0 33.4608 0C16.5931 0 2.91919 13.6739 2.91919 30.5416C2.91919 47.4092 16.5931 61.0832 33.4608 61.0832Z" fill="#26005A"/>
<path d="M2.1539 32.1433C3.28915 32.0876 4.16593 31.1246 4.11019 29.9892C4.05444 28.8539 3.0915 27.977 1.95624 28.0328C0.820987 28.0885 -0.0557947 29.0516 -4.55547e-05 30.1869C0.0557036 31.3222 1.01864 32.1991 2.1539 32.1433Z" fill="#440099"/>
<path d="M2.36656 36.6234C1.16542 36.6792 0.23289 37.703 0.293707 38.9042C0.349456 40.1055 1.37321 41.0381 2.57435 40.9772C3.77549 40.9215 4.70802 39.8977 4.64721 38.6964C4.59146 37.4952 3.5677 36.5626 2.36656 36.6234Z" fill="#440099"/>
<path d="M11.2716 40.2875C12.3207 40.2368 13.1316 39.3448 13.0809 38.2956C13.0302 37.2464 12.1382 36.4355 11.0892 36.4861C10.0401 36.5368 9.22916 37.4289 9.27984 38.4781C9.33052 39.5272 10.2225 40.3382 11.2716 40.2875Z" fill="#440099"/>
<path d="M2.81784 46.1568C2.06776 46.1923 1.49 46.8259 1.52548 47.576C1.56095 48.3261 2.19447 48.9039 2.94454 48.8685C3.69462 48.833 4.27239 48.1994 4.23691 47.4493C4.20143 46.6992 3.56792 46.1213 2.81784 46.1568Z" fill="#440099"/>
<path d="M11.4896 44.9663C10.3087 45.022 9.40152 46.0205 9.45727 47.2015C9.51302 48.3824 10.5114 49.2897 11.6923 49.2339C12.8732 49.1782 13.7804 48.1797 13.7246 46.9988C13.6689 45.8229 12.6704 44.9105 11.4896 44.9663Z" fill="#440099"/>
<path d="M12.0065 57.4801C12.9274 57.4801 13.6739 56.7335 13.6739 55.8125C13.6739 54.8916 12.9274 54.145 12.0065 54.145C11.0856 54.145 10.3391 54.8916 10.3391 55.8125C10.3391 56.7335 11.0856 57.4801 12.0065 57.4801Z" fill="#440099"/>
<path d="M20.714 57.5257C21.8868 57.5257 22.8375 56.5749 22.8375 55.402C22.8375 54.2291 21.8868 53.2783 20.714 53.2783C19.5412 53.2783 18.5905 54.2291 18.5905 55.402C18.5905 56.5749 19.5412 57.5257 20.714 57.5257Z" fill="#440099"/>
<path d="M29.5179 56.8764C30.5619 56.8257 31.3677 55.9388 31.3171 54.8997C31.2664 53.8556 30.3845 53.0497 29.3405 53.1004C28.2965 53.1511 27.4906 54.033 27.5413 55.0771C27.592 56.1212 28.4789 56.9271 29.5179 56.8764Z" fill="#440099"/>
<path d="M21.1245 65.4774C21.8746 65.4774 22.4827 64.8693 22.4827 64.1191C22.4827 63.3689 21.8746 62.7607 21.1245 62.7607C20.3743 62.7607 19.7662 63.3689 19.7662 64.1191C19.7662 64.8693 20.3743 65.4774 21.1245 65.4774Z" fill="#440099"/>
<path d="M29.7356 61.5243C28.5344 61.5801 27.6019 62.6039 27.6627 63.8051C27.7185 65.0063 28.7422 65.9389 29.9434 65.8781C31.1445 65.8224 32.077 64.7985 32.0162 63.5973C31.9605 62.3961 30.9367 61.4635 29.7356 61.5243Z" fill="#440099"/>
<path d="M42.4722 14.916L49.061 21.5048" stroke="#00B0B9" stroke-linecap="round" stroke-linejoin="round"/>
<path d="M32.0012 24.0791L39.8875 31.9603" stroke="#00B0B9" stroke-linecap="round" stroke-linejoin="round"/>
<path d="M26.9937 29.0869L34.8749 36.9681" stroke="#00B0B9" stroke-linecap="round" stroke-linejoin="round"/>
<path d="M17.8506 39.5322L24.4444 46.1261" stroke="#00B0B9" stroke-linecap="round" stroke-linejoin="round"/>
<path d="M38.2859 23.0551C35.1537 22.9385 32.0418 23.2224 29.092 26.1721C22.1484 33.1157 29.979 40.9462 23.0354 47.8898" stroke="white" stroke-linecap="round" stroke-linejoin="round"/>
<path d="M50.8098 20.1157C48.3314 22.5941 45.7465 23.1871 43.1262 23.2479" stroke="white" stroke-linecap="round" stroke-linejoin="round"/>
<path d="M23.9579 37.8296C21.2818 37.8701 18.6412 38.4378 16.1172 40.9669" stroke="white" stroke-linecap="round" stroke-linejoin="round"/>
<path d="M43.8915 13.1924C36.9479 20.136 44.7785 27.9665 37.8349 34.9101C34.6824 38.0625 31.3424 38.169 27.9872 37.9967" stroke="white" stroke-linecap="round" stroke-linejoin="round"/>
<path d="M26.4564 20.425C26.2942 20.5213 26.0813 20.496 25.9394 20.3541L22.6603 17.0748C22.4931 16.9075 22.4931 16.6389 22.6603 16.4716C22.8276 16.3044 23.0962 16.3044 23.2635 16.4716L26.5425 19.7509C26.7098 19.9182 26.7098 20.1868 26.5425 20.3541C26.5121 20.3845 26.4868 20.4048 26.4564 20.42V20.425Z" fill="#CB00A1"/>
<path d="M24.2923 23.2481C24.1605 23.3242 24.0034 23.3242 23.8666 23.2481L21.8596 22.0925C21.6569 21.976 21.5859 21.7124 21.7025 21.5097C21.8191 21.3069 22.0826 21.236 22.2853 21.3525L24.2923 22.5082C24.495 22.6247 24.566 22.8883 24.4494 23.091C24.4139 23.1569 24.3582 23.2127 24.2923 23.2481Z" fill="#CB00A1"/>
<path d="M29.2794 18.2558C29.0716 18.3724 28.8182 18.3065 28.6965 18.0987L27.541 16.0916C27.4245 15.8838 27.4903 15.6304 27.6981 15.5087C27.9059 15.3871 28.1593 15.458 28.281 15.6659L29.4365 17.673C29.5531 17.8808 29.4821 18.1393 29.2794 18.2558Z" fill="#CB00A1"/>
<path d="M43.1058 38.4128C43.2832 38.3469 43.4859 38.3976 43.6025 38.5598L46.3443 42.3003C46.4862 42.4879 46.4406 42.7565 46.2531 42.8933C46.0656 43.0302 45.7919 42.9947 45.6601 42.8021L42.9183 39.0616C42.7764 38.874 42.822 38.6054 43.0095 38.4686C43.0399 38.4432 43.0754 38.428 43.1058 38.4128Z" fill="#CB00A1"/>
<path d="M45.6753 35.9496C45.8172 35.8938 45.9743 35.9192 46.096 36.0155L47.9002 37.4651C48.0827 37.612 48.1131 37.8807 47.9661 38.0682C47.8191 38.2507 47.5505 38.2811 47.363 38.1341L45.5588 36.6845C45.3763 36.5375 45.3459 36.2689 45.4929 36.0814C45.5385 36.0205 45.5993 35.9749 45.6703 35.9547L45.6753 35.9496Z" fill="#CB00A1"/>
<path d="M39.9839 40.1314C40.2069 40.0452 40.4502 40.1517 40.5363 40.3747L41.3725 42.5338C41.4587 42.7569 41.3523 43.0001 41.1293 43.0863C40.9063 43.1725 40.663 43.066 40.5769 42.843L39.7406 40.6838C39.6545 40.4608 39.766 40.2125 39.9839 40.1314Z" fill="#CB00A1"/>
</g>
<defs>
<clipPath id="clip0_2419_22707">
<rect width="64.0025" height="65.8829" fill="white"/>
</clipPath>
</defs>
</svg>
