<svg width="64" height="66" viewBox="0 0 64 66" fill="none" xmlns="http://www.w3.org/2000/svg">
<g clip-path="url(#clip0_2419_22569)">
<path d="M33.4608 61.0832C50.3284 61.0832 64.0024 47.4092 64.0024 30.5416C64.0024 13.6739 50.3284 0 33.4608 0C16.5931 0 2.91919 13.6739 2.91919 30.5416C2.91919 47.4092 16.5931 61.0832 33.4608 61.0832Z" fill="#26005A"/>
<path d="M2.1539 32.1433C3.28915 32.0876 4.16593 31.1246 4.11019 29.9892C4.05444 28.8539 3.0915 27.977 1.95624 28.0328C0.820987 28.0885 -0.0557947 29.0516 -4.55547e-05 30.1869C0.0557036 31.3222 1.01864 32.1991 2.1539 32.1433Z" fill="#440099"/>
<path d="M2.36681 36.6234C1.16567 36.6792 0.233134 37.703 0.293951 38.9042C0.349701 40.1055 1.37346 41.0381 2.5746 40.9772C3.77574 40.9215 4.70827 39.8977 4.64745 38.6964C4.5917 37.4952 3.56795 36.5626 2.36681 36.6234Z" fill="#440099"/>
<path d="M11.2718 40.2875C12.3209 40.2368 13.1318 39.3448 13.0812 38.2956C13.0305 37.2464 12.1385 36.4355 11.0894 36.4861C10.0403 36.5368 9.2294 37.4289 9.28008 38.4781C9.33077 39.5272 10.2228 40.3382 11.2718 40.2875Z" fill="#440099"/>
<path d="M2.81784 46.1568C2.06776 46.1923 1.49 46.8259 1.52548 47.576C1.56095 48.3261 2.19447 48.9039 2.94454 48.8685C3.69462 48.833 4.27239 48.1994 4.23691 47.4493C4.20143 46.6992 3.56792 46.1213 2.81784 46.1568Z" fill="#440099"/>
<path d="M11.4898 44.9663C10.309 45.022 9.40177 46.0205 9.45752 47.2015C9.51326 48.3824 10.5117 49.2897 11.6925 49.2339C12.8734 49.1782 13.7806 48.1797 13.7249 46.9988C13.6691 45.8229 12.6707 44.9105 11.4898 44.9663Z" fill="#440099"/>
<path d="M12.0068 57.4801C12.9276 57.4801 13.6742 56.7335 13.6742 55.8125C13.6742 54.8916 12.9276 54.145 12.0068 54.145C11.0859 54.145 10.3394 54.8916 10.3394 55.8125C10.3394 56.7335 11.0859 57.4801 12.0068 57.4801Z" fill="#440099"/>
<path d="M20.714 57.5257C21.8868 57.5257 22.8375 56.5749 22.8375 55.402C22.8375 54.2291 21.8868 53.2783 20.714 53.2783C19.5412 53.2783 18.5905 54.2291 18.5905 55.402C18.5905 56.5749 19.5412 57.5257 20.714 57.5257Z" fill="#440099"/>
<path d="M29.5176 56.8764C30.5617 56.8257 31.3675 55.9388 31.3168 54.8997C31.2661 53.8556 30.3843 53.0497 29.3403 53.1004C28.2962 53.1511 27.4904 54.033 27.5411 55.0771C27.5918 56.1212 28.4787 56.9271 29.5176 56.8764Z" fill="#440099"/>
<path d="M21.1245 65.4774C21.8746 65.4774 22.4827 64.8693 22.4827 64.1191C22.4827 63.3689 21.8746 62.7607 21.1245 62.7607C20.3743 62.7607 19.7662 63.3689 19.7662 64.1191C19.7662 64.8693 20.3743 65.4774 21.1245 65.4774Z" fill="#440099"/>
<path d="M29.7356 61.5243C28.5344 61.5801 27.6019 62.6039 27.6627 63.8051C27.7185 65.0063 28.7422 65.9389 29.9434 65.8781C31.1445 65.8224 32.077 64.7985 32.0162 63.5973C31.9605 62.3961 30.9367 61.4635 29.7356 61.5243Z" fill="#440099"/>
<path d="M36.8112 15.8789C35.0474 17.0091 32.9491 18.3117 33.6232 20.7495C33.983 22.5995 35.4782 22.5437 37.0139 22.7363C40.1816 23.902 43.1415 23.0708 43.927 19.5027" stroke="white" stroke-linecap="round" stroke-linejoin="round"/>
<path d="M23.5475 35.5235C25.4329 35.2295 27.891 35.1129 28.925 37.0287C29.4216 38.0373 29.0111 39.2284 29.5534 40.237C31.525 43.7544 26.8267 44.3778 24.3483 44.4234" stroke="white" stroke-linecap="round" stroke-linejoin="round"/>
<path d="M36.6337 13.3652C36.7502 16.0514 35.9494 17.8608 43.3796 19.3104C50.4093 20.6839 49.421 38.5141 47.6116 47.7182" stroke="white" stroke-linecap="round" stroke-linejoin="round"/>
<path d="M42.4065 47.7185C44.4642 31.4594 40.5768 34.5156 41.3776 27.2375C41.3776 27.2375 39.4922 31.6875 35.6048 31.8598C31.7174 32.0321 30.5162 29.8578 30.5162 29.8578C30.5162 29.8578 28.6308 31.799 26.0004 31.7432C23.3699 31.6875 21.4845 30.314 22.4019 23.4565" stroke="white" stroke-linecap="round" stroke-linejoin="round"/>
<path d="M23.2584 33.1719C23.8869 38.4328 24.9715 40.7186 23.9426 47.7179" stroke="white" stroke-linecap="round" stroke-linejoin="round"/>
<path d="M28.6917 13.3652C28.6917 16.9941 26.7049 18.545 22.7212 20.0301C18.7375 21.5151 16.6393 23.8515 18.9758 31.8544C20.1769 35.9699 18.0026 41.6261 19.2038 47.7182" stroke="white" stroke-linecap="round" stroke-linejoin="round"/>
<path d="M42.077 33.1719C39.4365 39.7455 39.1526 40.3182 38.9246 47.7179" stroke="white" stroke-linecap="round" stroke-linejoin="round"/>
<path d="M36.2586 20.3445C36.6953 20.3445 37.0493 19.9905 37.0493 19.5539C37.0493 19.1172 36.6953 18.7632 36.2586 18.7632C35.822 18.7632 35.468 19.1172 35.468 19.5539C35.468 19.9905 35.822 20.3445 36.2586 20.3445Z" fill="#00B0B9"/>
<path d="M39.7102 21.9207C40.1468 21.9207 40.5008 21.5667 40.5008 21.13C40.5008 20.6934 40.1468 20.3394 39.7102 20.3394C39.2735 20.3394 38.9196 20.6934 38.9196 21.13C38.9196 21.5667 39.2735 21.9207 39.7102 21.9207Z" fill="#00B0B9"/>
<path d="M25.9953 38.3729C26.432 38.3729 26.786 38.0189 26.786 37.5822C26.786 37.1455 26.432 36.7915 25.9953 36.7915C25.5587 36.7915 25.2047 37.1455 25.2047 37.5822C25.2047 38.0189 25.5587 38.3729 25.9953 38.3729Z" fill="#CB00A1"/>
<path d="M27.5715 40.4451C28.0082 40.4451 28.3621 40.0911 28.3621 39.6545C28.3621 39.2178 28.0082 38.8638 27.5715 38.8638C27.1349 38.8638 26.7809 39.2178 26.7809 39.6545C26.7809 40.0911 27.1349 40.4451 27.5715 40.4451Z" fill="#CB00A1"/>
<path d="M26.786 42.9085C27.2226 42.9085 27.5766 42.5545 27.5766 42.1178C27.5766 41.6811 27.2226 41.3271 26.786 41.3271C26.3493 41.3271 25.9954 41.6811 25.9954 42.1178C25.9954 42.5545 26.3493 42.9085 26.786 42.9085Z" fill="#CB00A1"/>
</g>
<defs>
<clipPath id="clip0_2419_22569">
<rect width="64.0025" height="65.8829" fill="white"/>
</clipPath>
</defs>
</svg>
