<svg width="64" height="66" viewBox="0 0 64 66" fill="none" xmlns="http://www.w3.org/2000/svg">
<path d="M33.4621 61.1918C50.3291 61.1918 64.0025 47.4935 64.0025 30.5959C64.0025 13.6982 50.3291 0 33.4621 0C16.5951 0 2.92175 13.6982 2.92175 30.5959C2.92175 47.4935 16.5951 61.1918 33.4621 61.1918Z" fill="#26005A"/>
<path d="M2.15646 32.2003C3.29172 32.1444 4.1685 31.1798 4.11275 30.0424C4.057 28.9051 3.09406 28.0268 1.95881 28.0826C0.82355 28.1385 -0.0532312 29.1031 0.00251792 30.2405C0.058267 31.3778 1.02121 32.2562 2.15646 32.2003Z" fill="#440099"/>
<path d="M2.36937 36.6884C1.16823 36.7442 0.235698 37.7698 0.296515 38.9732C0.352264 40.1765 1.37602 41.1107 2.57716 41.0498C3.7783 40.9939 4.71083 39.9683 4.65002 38.765C4.59427 37.5617 3.57051 36.6274 2.36937 36.6884Z" fill="#440099"/>
<path d="M11.274 40.3591C12.3231 40.3083 13.134 39.4147 13.0834 38.3637C13.0327 37.3127 12.1407 36.5003 11.0916 36.5511C10.0425 36.6019 9.2316 37.4955 9.28228 38.5465C9.33296 39.5975 10.2249 40.4098 11.274 40.3591Z" fill="#440099"/>
<path d="M2.82041 46.2389C2.07033 46.2744 1.49256 46.9091 1.52804 47.6605C1.56352 48.4119 2.19703 48.9908 2.94711 48.9552C3.69719 48.9197 4.27495 48.285 4.23947 47.5336C4.204 46.7821 3.57048 46.2033 2.82041 46.2389Z" fill="#440099"/>
<path d="M11.492 45.0464C10.3112 45.1022 9.40396 46.1025 9.45971 47.2855C9.51546 48.4685 10.5139 49.3773 11.6947 49.3215C12.8756 49.2656 13.7828 48.2654 13.7271 47.0824C13.6713 45.9044 12.6729 44.9905 11.492 45.0464Z" fill="#440099"/>
<path d="M12.009 57.5821C12.9298 57.5821 13.6764 56.8342 13.6764 55.9116C13.6764 54.9891 12.9298 54.2412 12.009 54.2412C11.0881 54.2412 10.3416 54.9891 10.3416 55.9116C10.3416 56.8342 11.0881 57.5821 12.009 57.5821Z" fill="#440099"/>
<path d="M20.7158 57.6278C21.8886 57.6278 22.8394 56.6754 22.8394 55.5004C22.8394 54.3255 21.8886 53.373 20.7158 53.373C19.543 53.373 18.5923 54.3255 18.5923 55.5004C18.5923 56.6754 19.543 57.6278 20.7158 57.6278Z" fill="#440099"/>
<path d="M29.5191 56.9773C30.5631 56.9265 31.369 56.0379 31.3183 54.9971C31.2676 53.9512 30.3858 53.1439 29.3417 53.1947C28.2977 53.2454 27.4919 54.1289 27.5425 55.1748C27.5932 56.2207 28.4801 57.028 29.5191 56.9773Z" fill="#440099"/>
<path d="M21.1263 65.5935C21.8765 65.5935 22.4846 64.9843 22.4846 64.2328C22.4846 63.4813 21.8765 62.8721 21.1263 62.8721C20.3762 62.8721 19.7681 63.4813 19.7681 64.2328C19.7681 64.9843 20.3762 65.5935 21.1263 65.5935Z" fill="#440099"/>
<path d="M29.737 61.6337C28.5359 61.6895 27.6034 62.7151 27.6642 63.9185C27.7199 65.1218 28.7437 66.056 29.9448 65.9951C31.146 65.9392 32.0785 64.9136 32.0177 63.7103C31.9619 62.507 30.9382 61.5728 29.737 61.6337Z" fill="#440099"/>
<path d="M31.597 18.3037H35.3322" stroke="#00B0B9" stroke-linecap="round" stroke-linejoin="round"/>
<path d="M31.597 20.4922H35.3322" stroke="#00B0B9" stroke-linecap="round" stroke-linejoin="round"/>
<path d="M31.597 22.6855H35.3322" stroke="#00B0B9" stroke-linecap="round" stroke-linejoin="round"/>
<path d="M31.597 24.874H35.3322" stroke="#00B0B9" stroke-linecap="round" stroke-linejoin="round"/>
<path d="M26.9091 30.5148C29.4989 30.5148 31.592 28.4128 31.592 25.8234V17.0244" stroke="white" stroke-linecap="round" stroke-linejoin="round"/>
<path d="M40.0202 30.5148C37.4304 30.5148 35.3373 28.4128 35.3373 25.8234V17.0244" stroke="white" stroke-linecap="round" stroke-linejoin="round"/>
<path d="M35.3322 24.5087L37.6179 22.4067C38.5757 21.5233 40.0252 21.4776 41.0439 22.2899C43.9682 24.6255 49.2289 30.3019 49.0414 40.8272C49.011 42.6855 47.4753 44.1681 45.6153 44.1681H42.1031C40.7702 44.1681 39.488 43.635 38.5453 42.6906L36.8931 41.0354C35.9505 40.091 35.4183 38.8064 35.4183 37.4711V32.9421" stroke="white" stroke-linecap="round" stroke-linejoin="round"/>
<path d="M31.597 24.5087L29.3113 22.4067C28.3534 21.5233 26.904 21.4776 25.8853 22.2899C22.961 24.6255 17.7003 30.3019 17.8878 40.8272C17.9182 42.6855 19.4539 44.1681 21.3139 44.1681H24.826C26.159 44.1681 27.4412 43.635 28.3839 42.6906L30.0361 41.0354C30.9787 40.091 31.5109 38.8064 31.5109 37.4711V32.9421" stroke="white" stroke-linecap="round" stroke-linejoin="round"/>
<path d="M40.0202 34.4752C36.8628 34.4752 34.2172 32.3122 33.457 29.3877C32.6968 32.3122 30.0512 34.4752 26.8938 34.4752" stroke="white" stroke-linecap="round" stroke-linejoin="round"/>
<path d="M18.055 25.7724C17.9232 25.9044 17.7104 25.9349 17.538 25.8333L13.5393 23.4825C13.3366 23.3658 13.2707 23.1017 13.3873 22.8986C13.5038 22.6955 13.7674 22.6245 13.9701 22.7463L17.9688 25.0971C18.1716 25.2139 18.2374 25.4779 18.1209 25.681C18.1006 25.7166 18.0803 25.747 18.055 25.7673V25.7724Z" fill="#CB00A1"/>
<path d="M16.6714 29.0572C16.565 29.1638 16.4129 29.2044 16.2558 29.1638L14.0259 28.5495C13.7978 28.4885 13.666 28.255 13.7268 28.0214C13.7877 27.7929 14.0208 27.6609 14.2539 27.7219L16.4839 28.3362C16.712 28.3971 16.8437 28.6307 16.7829 28.8643C16.7626 28.9404 16.7272 29.0064 16.6714 29.0521V29.0572Z" fill="#CB00A1"/>
<path d="M20.2393 22.9542C20.067 23.1218 19.8035 23.1218 19.6362 22.9542L18.0093 21.3041C17.8421 21.1315 17.8421 20.8674 18.0093 20.6999C18.1766 20.5323 18.4452 20.5323 18.6125 20.6999L20.2393 22.35C20.4066 22.5226 20.4015 22.7917 20.2393 22.9542Z" fill="#CB00A1"/>
<path d="M49.0161 25.7724C49.1479 25.9044 49.3608 25.9349 49.5331 25.8333L53.5318 23.4825C53.7346 23.3658 53.8004 23.1017 53.6839 22.8986C53.5673 22.6955 53.3038 22.6245 53.101 22.7463L49.1023 25.0971C48.8996 25.2139 48.8337 25.4779 48.9503 25.681C48.9705 25.7166 48.9908 25.747 49.0161 25.7673V25.7724Z" fill="#CB00A1"/>
<path d="M50.3997 29.0572C50.5062 29.1638 50.6582 29.2044 50.8153 29.1638L53.0453 28.5495C53.2734 28.4885 53.4051 28.255 53.3443 28.0214C53.2835 27.7929 53.0504 27.6609 52.8172 27.7219L50.5873 28.3362C50.3592 28.3971 50.2274 28.6307 50.2882 28.8643C50.3085 28.9404 50.344 29.0064 50.3997 29.0521V29.0572Z" fill="#CB00A1"/>
<path d="M46.8318 22.9542C47.0041 23.1218 47.2676 23.1218 47.4349 22.9542L49.0618 21.3041C49.229 21.1315 49.229 20.8674 49.0618 20.6999C48.8945 20.5323 48.6259 20.5323 48.4587 20.6999L46.8318 22.35C46.6645 22.5226 46.6696 22.7917 46.8318 22.9542Z" fill="#CB00A1"/>
</svg>
