<svg width="64" height="66" viewBox="0 0 64 66" fill="none" xmlns="http://www.w3.org/2000/svg">
<g clip-path="url(#clip0_2419_22631)">
<path d="M33.4608 61.0832C50.3284 61.0832 64.0024 47.4092 64.0024 30.5416C64.0024 13.6739 50.3284 0 33.4608 0C16.5931 0 2.91919 13.6739 2.91919 30.5416C2.91919 47.4092 16.5931 61.0832 33.4608 61.0832Z" fill="#26005A"/>
<path d="M2.1539 32.1433C3.28915 32.0876 4.16593 31.1246 4.11019 29.9892C4.05444 28.8539 3.0915 27.977 1.95624 28.0328C0.820987 28.0885 -0.0557947 29.0516 -4.55547e-05 30.1869C0.0557036 31.3222 1.01864 32.1991 2.1539 32.1433Z" fill="#440099"/>
<path d="M2.36681 36.6234C1.16567 36.6792 0.233134 37.703 0.293951 38.9042C0.349701 40.1055 1.37346 41.0381 2.5746 40.9772C3.77574 40.9215 4.70827 39.8977 4.64745 38.6964C4.5917 37.4952 3.56795 36.5626 2.36681 36.6234Z" fill="#440099"/>
<path d="M11.2718 40.2875C12.3209 40.2368 13.1318 39.3448 13.0812 38.2956C13.0305 37.2464 12.1385 36.4355 11.0894 36.4861C10.0403 36.5368 9.2294 37.4289 9.28008 38.4781C9.33077 39.5272 10.2228 40.3382 11.2718 40.2875Z" fill="#440099"/>
<path d="M2.81784 46.1568C2.06776 46.1923 1.49 46.8259 1.52548 47.576C1.56095 48.3261 2.19447 48.9039 2.94454 48.8685C3.69462 48.833 4.27239 48.1994 4.23691 47.4493C4.20143 46.6992 3.56792 46.1213 2.81784 46.1568Z" fill="#440099"/>
<path d="M11.4898 44.9663C10.309 45.022 9.40177 46.0205 9.45752 47.2015C9.51326 48.3824 10.5117 49.2897 11.6925 49.2339C12.8734 49.1782 13.7806 48.1797 13.7249 46.9988C13.6691 45.8229 12.6707 44.9105 11.4898 44.9663Z" fill="#440099"/>
<path d="M12.0068 57.4801C12.9276 57.4801 13.6742 56.7335 13.6742 55.8125C13.6742 54.8916 12.9276 54.145 12.0068 54.145C11.0859 54.145 10.3394 54.8916 10.3394 55.8125C10.3394 56.7335 11.0859 57.4801 12.0068 57.4801Z" fill="#440099"/>
<path d="M20.714 57.5257C21.8868 57.5257 22.8375 56.5749 22.8375 55.402C22.8375 54.2291 21.8868 53.2783 20.714 53.2783C19.5412 53.2783 18.5905 54.2291 18.5905 55.402C18.5905 56.5749 19.5412 57.5257 20.714 57.5257Z" fill="#440099"/>
<path d="M29.5176 56.8764C30.5617 56.8257 31.3675 55.9388 31.3168 54.8997C31.2661 53.8556 30.3843 53.0497 29.3403 53.1004C28.2962 53.1511 27.4904 54.033 27.5411 55.0771C27.5918 56.1212 28.4787 56.9271 29.5176 56.8764Z" fill="#440099"/>
<path d="M21.1245 65.4774C21.8746 65.4774 22.4827 64.8693 22.4827 64.1191C22.4827 63.3689 21.8746 62.7607 21.1245 62.7607C20.3743 62.7607 19.7662 63.3689 19.7662 64.1191C19.7662 64.8693 20.3743 65.4774 21.1245 65.4774Z" fill="#440099"/>
<path d="M29.7356 61.5243C28.5344 61.5801 27.6019 62.6039 27.6627 63.8051C27.7185 65.0063 28.7422 65.9389 29.9434 65.8781C31.1445 65.8224 32.077 64.7985 32.0162 63.5973C31.9605 62.3961 30.9367 61.4635 29.7356 61.5243Z" fill="#440099"/>
<path d="M21.2311 19.2236C21.2311 27.1555 17.7745 47.0841 39.0563 47.0841C51.3267 47.0841 42.1733 27.2214 42.1733 27.2214" stroke="white" stroke-linecap="round" stroke-linejoin="round"/>
<path d="M45.9035 26.7755C45.9035 26.7755 39.8722 26.0305 34.5809 31.859" stroke="white" stroke-linecap="round" stroke-linejoin="round"/>
<path d="M25.2095 19.2236C25.2095 19.2236 24.8598 25.0927 25.2095 27.6928" stroke="white" stroke-linecap="round" stroke-linejoin="round"/>
<path d="M26.8569 15.9502C26.8569 15.9502 28.9045 19.797 28.0581 20.8462C27.2117 21.8953 26.0054 22.8938 25.1337 24.9414" stroke="white" stroke-linecap="round" stroke-linejoin="round"/>
<path d="M29.3049 14.8499C29.9536 16.7961 30.3844 19.5585 31.9555 19.2239C33.9524 18.7982 32.807 14.0034 32.807 14.0034" stroke="white" stroke-linecap="round" stroke-linejoin="round"/>
<path d="M35.4528 13.9985C35.4528 13.9985 35.0321 18.6413 36.2535 19.2495C38.1541 20.1973 38.8535 15.2504 38.8535 15.2504" stroke="white" stroke-linecap="round" stroke-linejoin="round"/>
<path d="M41.3977 16.3496C41.3977 16.3496 38.0021 20.3486 40.896 23.0451" stroke="white" stroke-linecap="round" stroke-linejoin="round"/>
<path d="M45.0978 23.2581C45.0978 23.2581 42.4014 22.9084 39.9028 23.2581C37.4041 23.6078 34.505 25.3564 32.8071 22.7563" stroke="white" stroke-linecap="round" stroke-linejoin="round"/>
<path d="M36.9226 23.9525C36.9226 23.9525 33.9525 21.3677 30.9014 23.4559C27.8503 25.544 29.3049 28.8891 29.3049 28.8891C29.3049 28.8891 32.28 27.6017 30.1767 24.059" stroke="white" stroke-linecap="round" stroke-linejoin="round"/>
<path d="M49.5223 27.1864C49.5425 26.9989 49.6844 26.8417 49.8821 26.8113L54.4586 26.0865C54.6917 26.0511 54.9097 26.2082 54.9451 26.4413C54.9806 26.6745 54.8235 26.8975 54.5904 26.9279L50.0139 27.6527C49.7807 27.6882 49.5628 27.5311 49.5273 27.2979C49.5223 27.2574 49.5172 27.2219 49.5273 27.1864H49.5223Z" fill="#CB00A1"/>
<path d="M48.5087 23.7749C48.5239 23.6279 48.6151 23.4961 48.7621 23.4302L50.8755 22.4875C51.0884 22.3912 51.3418 22.4875 51.4381 22.7054C51.5344 22.9183 51.4381 23.1717 51.2201 23.268L49.1067 24.2108C48.8939 24.3071 48.6405 24.2108 48.5442 23.9928C48.5138 23.9219 48.4986 23.8459 48.5138 23.7749H48.5087Z" fill="#CB00A1"/>
<path d="M49.6187 30.7484C49.6441 30.5102 49.8519 30.3429 50.0901 30.3683L52.391 30.6115C52.6292 30.6369 52.7964 30.8447 52.7711 31.0829C52.7458 31.3211 52.538 31.4884 52.2998 31.4631L49.9989 31.2198C49.7607 31.1944 49.5934 30.9815 49.6187 30.7484Z" fill="#CB00A1"/>
<path d="M17.0494 18.6103C16.9025 18.7269 16.6947 18.7421 16.5325 18.6255L12.772 15.9138C12.5794 15.777 12.5388 15.5084 12.6757 15.3208C12.8125 15.1333 13.0811 15.0826 13.2686 15.2245L17.0292 17.9362C17.2217 18.073 17.2623 18.3416 17.1255 18.5292C17.1001 18.5647 17.0798 18.59 17.0494 18.6103Z" fill="#CB00A1"/>
<path d="M15.3618 21.7431C15.2453 21.8394 15.0882 21.8647 14.9412 21.814L12.7771 20.9929C12.5592 20.9118 12.4426 20.6635 12.5288 20.4405C12.6099 20.2225 12.8582 20.1059 13.0812 20.1921L15.2453 21.0132C15.4632 21.0943 15.5798 21.3426 15.4936 21.5657C15.4683 21.6366 15.4227 21.7025 15.3618 21.7431Z" fill="#CB00A1"/>
<path d="M19.4923 16.0157C19.3098 16.1677 19.0412 16.1373 18.8942 15.9548L17.4346 14.1606C17.2826 13.9781 17.313 13.7095 17.4954 13.5625C17.6779 13.4155 17.9465 13.4409 18.0935 13.6233L19.5531 15.4176C19.7051 15.6001 19.6747 15.8738 19.4923 16.0157Z" fill="#CB00A1"/>
</g>
<defs>
<clipPath id="clip0_2419_22631">
<rect width="64.0025" height="65.8829" fill="white"/>
</clipPath>
</defs>
</svg>
